<?xml version="1.0" ?><svg fill="none" height="24" viewBox="0 0 24 24" width="24" xmlns="http://www.w3.org/2000/svg"><path clip-rule="evenodd" d="M10 2C9.44772 2 9 2.44772 9 3C9 3.55228 9.44772 4 10 4H14C14.5523 4 15 3.55228 15 3C15 2.44772 14.5523 2 14 2H10ZM13 10C13 9.44772 12.5523 9 12 9C11.4477 9 11 9.44772 11 10V13C11 13.5523 11.4477 14 12 14C12.5523 14 13 13.5523 13 13V10ZM17.7929 6.29289C18.1834 5.90237 18.8166 5.90237 19.2071 6.29289C19.5976 6.68342 19.5976 7.31658 19.2071 7.70711L18.676 8.23819C19.8183 9.68548 20.5 11.5131 20.5 13.5C20.5 18.1944 16.6944 22 12 22C7.30558 22 3.5 18.1944 3.5 13.5C3.5 8.80558 7.30558 5 12 5C13.9869 5 15.8145 5.6817 17.2618 6.82398L17.7929 6.29289ZM5.5 13.5C5.5 9.91015 8.41015 7 12 7C15.5899 7 18.5 9.91015 18.5 13.5C18.5 17.0899 15.5899 20 12 20C8.41015 20 5.5 17.0899 5.5 13.5Z" fill="#222222" fill-rule="evenodd"/></svg>